<mxfile host="Electron" agent="Mozilla/5.0 (Windows NT 10.0; Win64; x64) AppleWebKit/537.36 (KHTML, like Gecko) draw.io/26.0.16 Chrome/132.0.6834.196 Electron/34.2.0 Safari/537.36" version="26.0.16">
  <diagram name="Page-1" id="as87J2h2LJBpVKTewiW4">
    <mxGraphModel dx="2069" dy="713" grid="1" gridSize="10" guides="1" tooltips="1" connect="1" arrows="1" fold="1" page="1" pageScale="1" pageWidth="850" pageHeight="1100" math="0" shadow="0">
      <root>
        <mxCell id="0" />
        <mxCell id="1" parent="0" />
        <mxCell id="wCnHqrKtF0jghMTSFCJO-1" value="&lt;font style=&quot;font-size: 23px;&quot;&gt;crm_cust_info&lt;/font&gt;" style="swimlane;fontStyle=0;childLayout=stackLayout;horizontal=1;startSize=30;horizontalStack=0;resizeParent=1;resizeParentMax=0;resizeLast=0;collapsible=1;marginBottom=0;whiteSpace=wrap;html=1;rounded=1;fillColor=#dae8fc;strokeColor=#6c8ebf;" parent="1" vertex="1">
          <mxGeometry x="-105" y="110" width="220" height="130" as="geometry" />
        </mxCell>
        <mxCell id="wCnHqrKtF0jghMTSFCJO-2" value="&lt;font style=&quot;font-size: 20px;&quot;&gt;cst_key&lt;/font&gt;" style="text;strokeColor=none;fillColor=none;align=left;verticalAlign=middle;spacingLeft=4;spacingRight=4;overflow=hidden;points=[[0,0.5],[1,0.5]];portConstraint=eastwest;rotatable=0;whiteSpace=wrap;html=1;rounded=1;" parent="wCnHqrKtF0jghMTSFCJO-1" vertex="1">
          <mxGeometry y="30" width="220" height="50" as="geometry" />
        </mxCell>
        <mxCell id="wCnHqrKtF0jghMTSFCJO-12" value="&lt;font style=&quot;font-size: 20px;&quot;&gt;cst_id&lt;/font&gt;" style="text;strokeColor=none;fillColor=none;align=left;verticalAlign=middle;spacingLeft=4;spacingRight=4;overflow=hidden;points=[[0,0.5],[1,0.5]];portConstraint=eastwest;rotatable=0;whiteSpace=wrap;html=1;rounded=1;" parent="wCnHqrKtF0jghMTSFCJO-1" vertex="1">
          <mxGeometry y="80" width="220" height="50" as="geometry" />
        </mxCell>
        <mxCell id="wCnHqrKtF0jghMTSFCJO-15" value="&lt;font style=&quot;font-size: 23px;&quot;&gt;crm_prd_info&lt;/font&gt;" style="swimlane;fontStyle=0;childLayout=stackLayout;horizontal=1;startSize=30;horizontalStack=0;resizeParent=1;resizeParentMax=0;resizeLast=0;collapsible=1;marginBottom=0;whiteSpace=wrap;html=1;rounded=1;fillColor=#dae8fc;strokeColor=#6c8ebf;" parent="1" vertex="1">
          <mxGeometry x="-105" y="380" width="220" height="80" as="geometry" />
        </mxCell>
        <mxCell id="wCnHqrKtF0jghMTSFCJO-16" value="&lt;font style=&quot;font-size: 20px;&quot;&gt;prd_key&lt;/font&gt;" style="text;strokeColor=none;fillColor=none;align=left;verticalAlign=middle;spacingLeft=4;spacingRight=4;overflow=hidden;points=[[0,0.5],[1,0.5]];portConstraint=eastwest;rotatable=0;whiteSpace=wrap;html=1;rounded=1;" parent="wCnHqrKtF0jghMTSFCJO-15" vertex="1">
          <mxGeometry y="30" width="220" height="50" as="geometry" />
        </mxCell>
        <mxCell id="wCnHqrKtF0jghMTSFCJO-18" value="&lt;font style=&quot;font-size: 23px;&quot;&gt;crm_sales_details&lt;/font&gt;" style="swimlane;fontStyle=0;childLayout=stackLayout;horizontal=1;startSize=30;horizontalStack=0;resizeParent=1;resizeParentMax=0;resizeLast=0;collapsible=1;marginBottom=0;whiteSpace=wrap;html=1;rounded=1;fillColor=#dae8fc;strokeColor=#6c8ebf;" parent="1" vertex="1">
          <mxGeometry x="-425" y="240" width="220" height="130" as="geometry" />
        </mxCell>
        <mxCell id="wCnHqrKtF0jghMTSFCJO-19" value="&lt;font style=&quot;font-size: 20px;&quot;&gt;cst_id&lt;/font&gt;" style="text;strokeColor=none;fillColor=none;align=left;verticalAlign=middle;spacingLeft=4;spacingRight=4;overflow=hidden;points=[[0,0.5],[1,0.5]];portConstraint=eastwest;rotatable=0;whiteSpace=wrap;html=1;rounded=1;" parent="wCnHqrKtF0jghMTSFCJO-18" vertex="1">
          <mxGeometry y="30" width="220" height="50" as="geometry" />
        </mxCell>
        <mxCell id="wCnHqrKtF0jghMTSFCJO-20" value="&lt;font style=&quot;font-size: 20px;&quot;&gt;prd_key&lt;/font&gt;" style="text;strokeColor=none;fillColor=none;align=left;verticalAlign=middle;spacingLeft=4;spacingRight=4;overflow=hidden;points=[[0,0.5],[1,0.5]];portConstraint=eastwest;rotatable=0;whiteSpace=wrap;html=1;rounded=1;" parent="wCnHqrKtF0jghMTSFCJO-18" vertex="1">
          <mxGeometry y="80" width="220" height="50" as="geometry" />
        </mxCell>
        <mxCell id="wCnHqrKtF0jghMTSFCJO-21" style="edgeStyle=orthogonalEdgeStyle;rounded=1;orthogonalLoop=1;jettySize=auto;html=1;entryX=0;entryY=0.5;entryDx=0;entryDy=0;" parent="1" source="wCnHqrKtF0jghMTSFCJO-19" target="wCnHqrKtF0jghMTSFCJO-12" edge="1">
          <mxGeometry relative="1" as="geometry" />
        </mxCell>
        <mxCell id="wCnHqrKtF0jghMTSFCJO-22" style="edgeStyle=orthogonalEdgeStyle;rounded=1;orthogonalLoop=1;jettySize=auto;html=1;entryX=0;entryY=0.5;entryDx=0;entryDy=0;" parent="1" source="wCnHqrKtF0jghMTSFCJO-20" target="wCnHqrKtF0jghMTSFCJO-16" edge="1">
          <mxGeometry relative="1" as="geometry" />
        </mxCell>
        <mxCell id="wCnHqrKtF0jghMTSFCJO-23" value="&lt;font style=&quot;font-size: 23px;&quot;&gt;erp_cust_az12&lt;/font&gt;" style="swimlane;fontStyle=0;childLayout=stackLayout;horizontal=1;startSize=30;horizontalStack=0;resizeParent=1;resizeParentMax=0;resizeLast=0;collapsible=1;marginBottom=0;whiteSpace=wrap;html=1;rounded=1;fillColor=#fff2cc;strokeColor=#d6b656;" parent="1" vertex="1">
          <mxGeometry x="370" y="110" width="220" height="80" as="geometry" />
        </mxCell>
        <mxCell id="wCnHqrKtF0jghMTSFCJO-25" value="&lt;font style=&quot;font-size: 20px;&quot;&gt;cid&lt;/font&gt;" style="text;strokeColor=none;fillColor=none;align=left;verticalAlign=middle;spacingLeft=4;spacingRight=4;overflow=hidden;points=[[0,0.5],[1,0.5]];portConstraint=eastwest;rotatable=0;whiteSpace=wrap;html=1;rounded=1;" parent="wCnHqrKtF0jghMTSFCJO-23" vertex="1">
          <mxGeometry y="30" width="220" height="50" as="geometry" />
        </mxCell>
        <mxCell id="wCnHqrKtF0jghMTSFCJO-26" style="edgeStyle=orthogonalEdgeStyle;rounded=1;orthogonalLoop=1;jettySize=auto;html=1;entryX=1;entryY=0.5;entryDx=0;entryDy=0;" parent="1" source="wCnHqrKtF0jghMTSFCJO-25" target="wCnHqrKtF0jghMTSFCJO-2" edge="1">
          <mxGeometry relative="1" as="geometry" />
        </mxCell>
        <mxCell id="wCnHqrKtF0jghMTSFCJO-27" value="&lt;font style=&quot;font-size: 23px;&quot;&gt;erp_loc_a101&lt;/font&gt;" style="swimlane;fontStyle=0;childLayout=stackLayout;horizontal=1;startSize=30;horizontalStack=0;resizeParent=1;resizeParentMax=0;resizeLast=0;collapsible=1;marginBottom=0;whiteSpace=wrap;html=1;rounded=1;fillColor=#fff2cc;strokeColor=#d6b656;" parent="1" vertex="1">
          <mxGeometry x="370" y="260" width="220" height="80" as="geometry" />
        </mxCell>
        <mxCell id="wCnHqrKtF0jghMTSFCJO-28" value="&lt;font style=&quot;font-size: 20px;&quot;&gt;cid&lt;/font&gt;" style="text;strokeColor=none;fillColor=none;align=left;verticalAlign=middle;spacingLeft=4;spacingRight=4;overflow=hidden;points=[[0,0.5],[1,0.5]];portConstraint=eastwest;rotatable=0;whiteSpace=wrap;html=1;rounded=1;" parent="wCnHqrKtF0jghMTSFCJO-27" vertex="1">
          <mxGeometry y="30" width="220" height="50" as="geometry" />
        </mxCell>
        <mxCell id="wCnHqrKtF0jghMTSFCJO-30" style="edgeStyle=orthogonalEdgeStyle;rounded=1;orthogonalLoop=1;jettySize=auto;html=1;entryX=1;entryY=0.5;entryDx=0;entryDy=0;" parent="1" source="wCnHqrKtF0jghMTSFCJO-28" target="wCnHqrKtF0jghMTSFCJO-2" edge="1">
          <mxGeometry relative="1" as="geometry" />
        </mxCell>
        <mxCell id="wCnHqrKtF0jghMTSFCJO-31" value="&lt;font style=&quot;font-size: 23px;&quot;&gt;erp_cat_g1v2&lt;/font&gt;" style="swimlane;fontStyle=0;childLayout=stackLayout;horizontal=1;startSize=30;horizontalStack=0;resizeParent=1;resizeParentMax=0;resizeLast=0;collapsible=1;marginBottom=0;whiteSpace=wrap;html=1;rounded=1;fillColor=#fff2cc;strokeColor=#d6b656;" parent="1" vertex="1">
          <mxGeometry x="370" y="390" width="220" height="80" as="geometry" />
        </mxCell>
        <mxCell id="wCnHqrKtF0jghMTSFCJO-32" value="&lt;font style=&quot;font-size: 20px;&quot;&gt;id&lt;/font&gt;" style="text;strokeColor=none;fillColor=none;align=left;verticalAlign=middle;spacingLeft=4;spacingRight=4;overflow=hidden;points=[[0,0.5],[1,0.5]];portConstraint=eastwest;rotatable=0;whiteSpace=wrap;html=1;rounded=1;" parent="wCnHqrKtF0jghMTSFCJO-31" vertex="1">
          <mxGeometry y="30" width="220" height="50" as="geometry" />
        </mxCell>
        <mxCell id="wCnHqrKtF0jghMTSFCJO-33" style="edgeStyle=orthogonalEdgeStyle;rounded=1;orthogonalLoop=1;jettySize=auto;html=1;entryX=1;entryY=0.5;entryDx=0;entryDy=0;" parent="1" source="wCnHqrKtF0jghMTSFCJO-32" target="wCnHqrKtF0jghMTSFCJO-16" edge="1">
          <mxGeometry relative="1" as="geometry" />
        </mxCell>
        <mxCell id="wCnHqrKtF0jghMTSFCJO-34" value="" style="rounded=1;whiteSpace=wrap;html=1;dashed=1;fillColor=none;" parent="1" vertex="1">
          <mxGeometry x="-445" y="50" width="630" height="460" as="geometry" />
        </mxCell>
        <mxCell id="wCnHqrKtF0jghMTSFCJO-36" value="&lt;font style=&quot;font-size: 25px;&quot;&gt;CRM&lt;/font&gt;" style="rounded=1;whiteSpace=wrap;html=1;fillColor=#dae8fc;strokeColor=#6c8ebf;" parent="1" vertex="1">
          <mxGeometry x="-190" y="20" width="120" height="60" as="geometry" />
        </mxCell>
        <mxCell id="wCnHqrKtF0jghMTSFCJO-37" value="" style="rounded=1;whiteSpace=wrap;html=1;dashed=1;fillColor=none;" parent="1" vertex="1">
          <mxGeometry x="310" y="50" width="360" height="470" as="geometry" />
        </mxCell>
        <mxCell id="wCnHqrKtF0jghMTSFCJO-38" value="&lt;span style=&quot;font-size: 25px;&quot;&gt;ERP&lt;/span&gt;" style="rounded=1;whiteSpace=wrap;html=1;fillColor=#fff2cc;strokeColor=#d6b656;" parent="1" vertex="1">
          <mxGeometry x="420" y="20" width="120" height="60" as="geometry" />
        </mxCell>
        <mxCell id="uAbcnGtalzMizN6EmddV-1" value="Customer" style="text;html=1;strokeColor=#b85450;fillColor=#f8cecc;align=center;verticalAlign=middle;whiteSpace=wrap;overflow=hidden;fontSize=20;" vertex="1" parent="1">
          <mxGeometry x="-102.5" y="230" width="217.5" height="30" as="geometry" />
        </mxCell>
        <mxCell id="uAbcnGtalzMizN6EmddV-2" value="Customer" style="text;html=1;strokeColor=#b85450;fillColor=#f8cecc;align=center;verticalAlign=middle;whiteSpace=wrap;overflow=hidden;fontSize=20;" vertex="1" parent="1">
          <mxGeometry x="370" y="180" width="220" height="30" as="geometry" />
        </mxCell>
        <mxCell id="uAbcnGtalzMizN6EmddV-3" value="Customer" style="text;html=1;strokeColor=#b85450;fillColor=#f8cecc;align=center;verticalAlign=middle;whiteSpace=wrap;overflow=hidden;fontSize=20;" vertex="1" parent="1">
          <mxGeometry x="370" y="330" width="220" height="30" as="geometry" />
        </mxCell>
        <mxCell id="uAbcnGtalzMizN6EmddV-4" value="Product" style="text;html=1;strokeColor=#9673a6;fillColor=#e1d5e7;align=center;verticalAlign=middle;whiteSpace=wrap;overflow=hidden;fontSize=20;" vertex="1" parent="1">
          <mxGeometry x="-102.5" y="460" width="217.5" height="30" as="geometry" />
        </mxCell>
        <mxCell id="uAbcnGtalzMizN6EmddV-5" value="Product" style="text;html=1;strokeColor=#9673a6;fillColor=#e1d5e7;align=center;verticalAlign=middle;whiteSpace=wrap;overflow=hidden;fontSize=20;" vertex="1" parent="1">
          <mxGeometry x="370" y="460" width="220" height="30" as="geometry" />
        </mxCell>
        <mxCell id="uAbcnGtalzMizN6EmddV-7" value="Transactions" style="text;html=1;strokeColor=#82b366;fillColor=#d5e8d4;align=center;verticalAlign=middle;whiteSpace=wrap;overflow=hidden;fontSize=20;" vertex="1" parent="1">
          <mxGeometry x="-425" y="360" width="217.5" height="30" as="geometry" />
        </mxCell>
      </root>
    </mxGraphModel>
  </diagram>
</mxfile>
